<?xml version="1.0" encoding="UTF-8"?>
<svg width="190px" height="20px" viewBox="0 0 190 20" version="1.1" xmlns="http://www.w3.org/2000/svg" xmlns:xlink="http://www.w3.org/1999/xlink">
    <!-- Generator: Sketch 55.2 (78181) - https://sketchapp.com -->
    <title>Renderspace_logo</title>
    <desc>Created with Sketch.</desc>
    <g id="Page-1" stroke="none" stroke-width="1" fill="none" fill-rule="evenodd">
        <g id="logo" fill="#86EBDA" fill-rule="nonzero">
            <path d="M0,4.4690894 L0,15.822556 L2.287188,15.822556 L2.287188,6.6516925 L6.592732,6.6516925 L6.592732,4.4690894 L0,4.4690894 Z M13.137031,10.2100479 C13.137031,11.8784986 13.720322,13.2791689 14.875322,14.4225876 C16.030674,15.5663572 17.430642,16.1380666 19.087862,16.1380666 C20.068086,16.1380666 20.977767,15.9281941 21.829891,15.4961658 C22.681664,15.07607 23.369891,14.4924281 23.894923,13.7459421 L22.261568,12.4975872 C21.911313,12.9871725 21.456473,13.3725236 20.884763,13.6410058 C20.312703,13.9091372 19.71783,14.0491691 19.087862,14.0491691 C18.142383,14.0491691 17.325355,13.7571727 16.660291,13.1742327 C15.983996,12.6025234 15.56355,11.867268 15.400354,10.9688174 L24.700019,10.9688174 C24.735115,10.6533069 24.747048,10.3967572 24.747048,10.1865338 C24.747048,9.404952 24.607016,8.6468844 24.31537,7.9228596 C24.023725,7.1995367 23.61521,6.5695685 23.113342,6.0329549 C22.611473,5.4959903 21.993086,5.063962 21.269412,4.7375717 C20.54644,4.4227631 19.776089,4.259217 18.94783,4.259217 C17.838805,4.259217 16.847,4.5273483 15.948901,5.0758945 C15.05045,5.6244407 14.361521,6.3596961 13.871936,7.2581466 C13.381648,8.1681787 13.137031,9.1484023 13.137031,10.2100479 L13.137031,10.2100479 Z M22.413182,9.1599839 L15.482128,9.1599839 C15.692,8.3320757 16.112096,7.6666608 16.742064,7.1412778 C17.360451,6.6165968 18.107288,6.3596961 18.970642,6.3596961 C19.857862,6.3596961 20.616632,6.6281784 21.257831,7.1528594 C21.88815,7.689824 22.27315,8.354888 22.413182,9.1599839 L22.413182,9.1599839 Z M32.829593,4.4690894 L32.829593,15.822556 L35.116781,15.822556 L35.116781,10.0352712 C35.116781,7.6312141 36.085072,6.4298875 38.010774,6.4298875 C39.865934,6.4298875 40.787548,7.5729552 40.787548,9.8717251 L40.787548,15.822556 L43.0979,15.822556 L43.0979,9.3937214 C43.0979,7.6782424 42.678155,6.3947918 41.826381,5.5430186 C40.974257,4.6908944 39.830839,4.259217 38.418938,4.259217 C37.660519,4.259217 37.030551,4.3757348 36.5171,4.6210539 C36.00365,4.866373 35.536526,5.227859 35.116781,5.6942812 L35.116781,4.4690894 L32.829593,4.4690894 Z M51.005668,10.2100479 C51.005668,11.0267254 51.157632,11.7970765 51.472441,12.5323319 C51.787952,13.2675873 52.207696,13.8975556 52.744661,14.4225876 C53.269342,14.9479706 53.911243,15.3673645 54.646498,15.6712935 C55.381403,15.9857511 56.175268,16.1380666 57.003527,16.1380666 C58.602137,16.1380666 59.862425,15.5895204 60.807553,14.4811975 L60.807553,15.822556 L63.09439,15.822556 L63.09439,0 L60.807553,0 L60.807553,5.9280187 C59.838911,4.8189938 58.567042,4.259217 57.003527,4.259217 C56.18685,4.259217 55.404917,4.4108305 54.670012,4.7144085 C53.935108,5.0292172 53.292856,5.4377314 52.755892,5.9627634 C52.219629,6.4877955 51.799182,7.1300472 51.484374,7.8649517 C51.169214,8.6002071 51.005668,9.3817888 51.005668,10.2100479 L51.005668,10.2100479 Z M53.269342,10.2100479 C53.269342,9.1484023 53.631179,8.2615333 54.343271,7.5266289 C55.055013,6.7913735 55.941881,6.4298875 57.003527,6.4298875 C58.065524,6.4298875 58.952042,6.803306 59.675716,7.5385614 C60.399038,8.2731149 60.760875,9.1719164 60.760875,10.2100479 C60.760875,11.2485304 60.399038,12.1357503 59.687297,12.8706547 C58.975907,13.6059101 58.077105,13.9793286 57.003527,13.9793286 C55.941881,13.9793286 55.055013,13.6171408 54.343271,12.8941688 C53.631179,12.170846 53.269342,11.2720445 53.269342,10.2100479 L53.269342,10.2100479 Z M71.247477,10.2100479 C71.247477,11.8784986 71.830768,13.2791689 72.98612,14.4225876 C74.14112,15.5663572 75.541439,16.1380666 77.198308,16.1380666 C78.178532,16.1380666 79.088915,15.9281941 79.940688,15.4961658 C80.79211,15.07607 81.480689,14.4924281 82.006072,13.7459421 L80.372366,12.4975872 C80.02211,12.9871725 79.56727,13.3725236 78.995209,13.6410058 C78.423851,13.9091372 77.828277,14.0491691 77.198308,14.0491691 C76.253181,14.0491691 75.436503,13.7571727 74.771088,13.1742327 C74.094443,12.6025234 73.674347,11.867268 73.511503,10.9688174 L82.811167,10.9688174 C82.845912,10.6533069 82.857845,10.3967572 82.857845,10.1865338 C82.857845,9.404952 82.717813,8.6468844 82.425816,7.9228596 C82.134171,7.1995367 81.725657,6.5695685 81.224139,6.0329549 C80.72227,5.4959903 80.104234,5.063962 79.38021,4.7375717 C78.657238,4.4227631 77.886886,4.259217 77.058276,4.259217 C75.949603,4.259217 74.958499,4.5273483 74.059347,5.0758945 C73.160545,5.6244407 72.472669,6.3596961 71.982733,7.2581466 C71.492446,8.1681787 71.247477,9.1484023 71.247477,10.2100479 L71.247477,10.2100479 Z M80.523979,9.1599839 L73.592574,9.1599839 C73.802797,8.3320757 74.222542,7.6666608 74.853212,7.1412778 C75.471599,6.6165968 76.218085,6.3596961 77.082142,6.3596961 C77.96866,6.3596961 78.726727,6.6281784 79.368628,7.1528594 C79.999298,7.689824 80.383596,8.354888 80.523979,9.1599839 L80.523979,9.1599839 Z M90.940741,4.4690894 L90.940741,15.822556 L93.227578,15.822556 L93.227578,6.6516925 L97.533473,6.6516925 L97.533473,4.4690894 L90.940741,4.4690894 Z M105.254532,12.8822363 L104.017758,14.6559742 C105.31244,15.6477793 106.759787,16.1380666 108.358398,16.1380666 C109.641848,16.1380666 110.668398,15.822556 111.427519,15.1922368 C112.185937,14.5622686 112.570235,13.7108463 112.570235,12.6256866 C112.570235,12.0771404 112.465299,11.5872041 112.243494,11.1786899 C112.022391,10.7705266 111.742327,10.4202713 111.403303,10.1865338 C111.065331,9.9534982 110.680331,9.7432748 110.259884,9.5684981 C109.840139,9.3937214 109.420043,9.2417569 108.999596,9.1136575 C108.579852,8.9848562 108.206784,8.8564058 107.86811,8.7163739 C107.529437,8.576342 107.261656,8.43631 107.016337,8.2383702 C106.78295,8.0400793 106.689245,7.8063418 106.689245,7.5385614 C106.689245,7.1995367 106.829277,6.9314054 107.109692,6.6980188 C107.390107,6.4765648 107.79827,6.3596961 108.334883,6.3596961 C109.26843,6.3596961 110.144068,6.6509906 110.948813,7.246565 L112.162423,5.5430186 C111.100426,4.6908944 109.816976,4.259217 108.31172,4.259217 C107.132855,4.259217 106.200011,4.5859582 105.487216,5.2510222 C104.776177,5.9160861 104.41434,6.7678593 104.41434,7.8182743 C104.41434,8.3668205 104.519276,8.8455262 104.741081,9.2536894 C104.962535,9.6618527 105.24295,9.9647288 105.592855,10.1865338 C105.930826,10.4083387 106.316177,10.6069805 106.735922,10.7585941 C107.156018,10.9221401 107.576465,11.0618211 107.99621,11.1667573 C108.416305,11.2720445 108.802007,11.3885623 109.151912,11.5054311 C109.490235,11.6335305 109.770298,11.7970765 109.991753,11.9953674 C110.213557,12.2055907 110.318494,12.4624914 110.318494,12.7660695 C110.318494,13.1510695 110.154948,13.4658782 109.828206,13.6992647 C109.490235,13.9326513 109.023461,14.0491691 108.428238,14.0491691 C107.261656,14.0491691 106.200011,13.66452 105.254532,12.8822363 L105.254532,12.8822363 Z M120.75877,4.4690894 L120.75877,20 L123.045607,20 L123.045607,14.4811975 C123.990384,15.5895204 125.251022,16.1380666 126.849632,16.1380666 C127.678242,16.1380666 128.471757,15.9857511 129.206661,15.6712935 C129.941566,15.3673645 130.583466,14.9479706 131.120431,14.4225876 C131.645463,13.8975556 132.065559,13.2675873 132.380367,12.5323319 C132.695527,11.7970765 132.847141,11.0267254 132.847141,10.2100479 C132.847141,9.3817888 132.695527,8.6002071 132.380367,7.8649517 C132.065559,7.1300472 131.633881,6.4877955 131.096566,5.9627634 C130.559952,5.4377314 129.918753,5.0292172 129.182796,4.7144085 C128.447892,4.4108305 127.66631,4.259217 126.849632,4.259217 C125.262253,4.259217 123.990384,4.8189938 123.045607,5.9280187 L123.045607,4.4690894 L120.75877,4.4690894 Z M123.12738,10.2100479 C123.12738,9.1484023 123.489217,8.2615333 124.200607,7.5266289 C124.91305,6.7913735 125.787636,6.4298875 126.849632,6.4298875 C127.911278,6.4298875 128.798147,6.7913735 129.509537,7.5266289 C130.221629,8.2615333 130.583466,9.1484023 130.583466,10.2100479 C130.583466,11.2720445 130.221629,12.170846 129.509537,12.8941688 C128.798147,13.6171408 127.899696,13.9793286 126.826118,13.9793286 C125.752891,13.9793286 124.865671,13.6171408 124.177093,12.8822363 C123.477284,12.1469809 123.12738,11.2604629 123.12738,10.2100479 L123.12738,10.2100479 Z M140.043519,10.2100479 C140.043519,11.0267254 140.19443,11.7970765 140.510292,12.5323319 C140.82475,13.2675873 141.245196,13.8975556 141.78181,14.4225876 C142.307193,14.9479706 142.948392,15.3673645 143.683647,15.6712935 C144.418903,15.9857511 145.212417,16.1380666 146.040325,16.1380666 C147.639286,16.1380666 148.899574,15.5895204 149.844701,14.4811975 L149.844701,15.822556 L152.13189,15.822556 L152.13189,4.4690894 L149.844701,4.4690894 L149.844701,5.9280187 C148.875708,4.8189938 147.60419,4.259217 146.040325,4.259217 C145.224349,4.259217 144.441715,4.4108305 143.70681,4.7144085 C142.971906,5.0292172 142.330356,5.4377314 141.793391,5.9627634 C141.256427,6.4877955 140.836682,7.1300472 140.521522,7.8649517 C140.206363,8.6002071 140.043519,9.3817888 140.043519,10.2100479 L140.043519,10.2100479 Z M142.307193,10.2100479 C142.307193,9.1484023 142.668328,8.2615333 143.380069,7.5266289 C144.09181,6.7913735 144.978328,6.4298875 146.040325,6.4298875 C147.103023,6.4298875 147.989541,6.803306 148.713215,7.5385614 C149.436187,8.2731149 149.797673,9.1719164 149.797673,10.2100479 C149.797673,11.2485304 149.436187,12.1357503 148.724446,12.8706547 C148.012354,13.6059101 147.113903,13.9793286 146.040325,13.9793286 C144.978328,13.9793286 144.09181,13.6171408 143.380069,12.8941688 C142.668328,12.170846 142.307193,11.2720445 142.307193,10.2100479 L142.307193,10.2100479 Z M160.284977,10.2100479 C160.284977,11.2836261 160.553109,12.2757822 161.089722,13.1858143 C161.615105,14.0954955 162.338077,14.8191693 163.260042,15.3445523 C164.170425,15.8695843 165.161528,16.1380666 166.235457,16.1380666 C167.297454,16.1380666 168.277326,15.8808149 169.187709,15.3673645 C170.086511,14.8661976 170.809834,14.1776195 171.347149,13.3139137 L169.433029,12.1936582 C169.105585,12.7418534 168.663028,13.1858143 168.114131,13.5006229 C167.565585,13.8157825 166.947198,13.9793286 166.282135,13.9793286 C165.244354,13.9793286 164.356783,13.6059101 163.633811,12.8706547 C162.910137,12.1357503 162.548651,11.2604629 162.548651,10.233562 C162.548651,9.2070121 162.910137,8.3201432 163.621879,7.5617246 C164.333971,6.803306 165.209258,6.4298875 166.235457,6.4298875 C166.877358,6.4298875 167.483812,6.581501 168.044291,6.8963097 C168.592486,7.2114693 169.036096,7.6312141 169.362837,8.1565971 L171.299419,7.0479232 C170.763157,6.196501 170.051064,5.5195044 169.152614,5.0176356 C168.254163,4.5157668 167.274291,4.259217 166.235457,4.259217 C165.150648,4.259217 164.147262,4.5273483 163.236879,5.063962 C162.314914,5.6012775 161.603173,6.3246003 161.078492,7.2349834 C160.553109,8.1446646 160.284977,9.1368207 160.284977,10.2100479 L160.284977,10.2100479 Z M178.180287,10.2100479 C178.180287,11.8784986 178.76428,13.2791689 179.919631,14.4225876 C181.074631,15.5663572 182.47495,16.1380666 184.131469,16.1380666 C185.111692,16.1380666 186.022426,15.9281941 186.873497,15.4961658 C187.725622,15.07607 188.414551,14.4924281 188.939583,13.7459421 L187.305175,12.4975872 C186.955972,12.9871725 186.50043,13.3725236 185.928721,13.6410058 C185.357011,13.9091372 184.761788,14.0491691 184.131469,14.0491691 C183.187043,14.0491691 182.370014,13.7571727 181.704599,13.1742327 C181.027954,12.6025234 180.608209,11.867268 180.444312,10.9688174 L189.744679,10.9688174 C189.779774,10.6533069 189.790654,10.3967572 189.790654,10.1865338 C189.790654,9.404952 189.650973,8.6468844 189.358977,7.9228596 C189.067682,7.1995367 188.659168,6.5695685 188.157299,6.0329549 C187.656132,5.4959903 187.037044,5.063962 186.314072,4.7375717 C185.590047,4.4227631 184.820398,4.259217 183.991788,4.259217 C182.883114,4.259217 181.891309,4.5273483 180.992858,5.0758945 C180.094407,5.6244407 179.406531,6.3596961 178.915542,7.2581466 C178.425255,8.1681787 178.180287,9.1484023 178.180287,10.2100479 L178.180287,10.2100479 Z M187.45749,9.1599839 L180.526085,9.1599839 C180.736308,8.3320757 181.156053,7.6666608 181.786372,7.1412778 C182.404408,6.6165968 183.151596,6.3596961 184.014951,6.3596961 C184.902171,6.3596961 185.660589,6.6281784 186.301788,7.1528594 C186.932107,7.689824 187.317107,8.354888 187.45749,9.1599839 L187.45749,9.1599839 Z" id="Renderspace_logo"></path>
        </g>
    </g>
</svg>