<!-- Generated by IcoMoon.io -->
<svg version="1.1" xmlns="http://www.w3.org/2000/svg" width="32" height="32" viewBox="0 0 32 32">
<title>MiMercator_iconset_final_gallery-zoom-in</title>
<path d="M25.856 23.168c1.426-1.995 2.287-4.479 2.304-7.164l0-0.004c0-6.716-5.444-12.16-12.16-12.16s-12.16 5.444-12.16 12.16c0 6.716 5.444 12.16 12.16 12.16v0c2.689-0.017 5.173-0.878 7.206-2.33l-0.038 0.026 6.144 6.144 2.688-2.688zM16 24.32c-4.595 0-8.32-3.725-8.32-8.32s3.725-8.32 8.32-8.32c4.595 0 8.32 3.725 8.32 8.32v0c0 4.595-3.725 8.32-8.32 8.32v0z" fill="#FAFAF9"></path>
<path d="M17.92 10.24h-3.84v3.84h-3.84v3.84h3.84v3.84h3.84v-3.84h3.84v-3.84h-3.84v-3.84z" fill="#FAFAF9"></path>
</svg>
