<!-- Generated by IcoMoon.io -->
<svg version="1.1" xmlns="http://www.w3.org/2000/svg" width="32" height="32" viewBox="0 0 32 32">
<title>close</title>
<path d="M17.509 16l14.179 14.179c0.417 0.417 0.417 1.092 0 1.509s-1.092 0.417-1.509 0l-14.179-14.179-14.179 14.179c-0.417 0.417-1.092 0.417-1.508 0s-0.417-1.092 0-1.509l14.179-14.179-14.179-14.179c-0.417-0.417-0.417-1.092 0-1.508s1.092-0.417 1.508 0l14.179 14.179 14.179-14.179c0.417-0.417 1.092-0.417 1.509 0s0.417 1.092 0 1.508l-14.179 14.179z"></path>
</svg>
