<!-- Generated by IcoMoon.io -->
<svg version="1.1" xmlns="http://www.w3.org/2000/svg" width="32" height="32" viewBox="0 0 32 32">
<title>sale</title>
<path fill="#3dc5d3" d="M10.725 3.401c-2.487-0.993-5.537-0.825-9.131 0.448l0.712 2.011c3.146-1.114 5.683-1.254 7.628-0.478 1.809 0.722 3.414-0.934 0.791-1.981z"></path>
<path fill="#005189" d="M6.128 9.764l6.114-8.941 10.526 2.553 8.299 21.62-16.64 6.387-8.299-21.62zM15.95 10.076c1.205-0.463 1.806-1.818 1.342-3.027s-1.817-1.814-3.023-1.352c-1.205 0.463-1.806 1.818-1.342 3.027s1.817 1.814 3.023 1.352zM15.669 25.203l1.503 0.644 5.882-12.724-1.503-0.644-5.882 12.724zM24.668 23.535c1.375-0.528 2.062-2.070 1.534-3.445s-2.070-2.062-3.445-1.534c-1.375 0.528-2.062 2.070-1.534 3.445s2.070 2.062 3.445 1.534zM24.19 22.29c-0.687 0.264-1.459-0.079-1.723-0.767s0.079-1.459 0.767-1.723c0.687-0.264 1.459 0.079 1.723 0.767s-0.079 1.459-0.767 1.723zM16.134 19.268c1.375-0.528 2.062-2.070 1.534-3.445s-2.070-2.062-3.445-1.534c-1.375 0.528-2.062 2.070-1.534 3.445s2.070 2.062 3.445 1.534zM15.656 18.023c-0.687 0.264-1.459-0.079-1.723-0.767s0.079-1.459 0.767-1.723c0.687-0.264 1.459 0.079 1.723 0.767s-0.079 1.459-0.767 1.723z"></path>
<path fill="#3dc5d3" d="M14.209 6.92l2.058 0.56c-0.782 2.875-2.642 4.586-5.44 4.967-2.654 0.362-5.572-0.539-8.751-2.644l1.177-1.779c2.783 1.842 5.211 2.592 7.286 2.309 1.93-0.263 3.107-1.346 3.67-3.414z"></path>
</svg>
