<!-- Generated by IcoMoon.io -->
<svg version="1.1" xmlns="http://www.w3.org/2000/svg" width="32" height="32" viewBox="0 0 32 32">
<title>today</title>
<path fill="#005189" d="M0 10.413h27.733v17.145h-27.733z"></path>
<path fill="#3dc5d3" d="M27.718 10.413h-27.718v-6.296l27.718-0.025v6.321zM6.133 9.425c1.031 0 1.867-0.836 1.867-1.867s-0.836-1.867-1.867-1.867c-1.031 0-1.867 0.836-1.867 1.867s0.836 1.867 1.867 1.867zM22.133 9.425c1.031 0 1.867-0.836 1.867-1.867s-0.836-1.867-1.867-1.867c-1.031 0-1.867 0.836-1.867 1.867s0.836 1.867 1.867 1.867z"></path>
<path fill="#fff" d="M9.6 15.467h2.667v-2.667h-2.667z"></path>
<path fill="#fff" d="M14.933 15.467h2.667v-2.667h-2.667z"></path>
<path fill="#fff" d="M20.267 15.467h2.667v-2.667h-2.667z"></path>
<path fill="#fff" d="M4.267 20.267h2.667v-2.667h-2.667z"></path>
<path fill="#fff" d="M9.6 20.267h2.667v-2.667h-2.667z"></path>
<path fill="#fff" d="M14.933 20.267h2.667v-2.667h-2.667z"></path>
<path fill="#fff" d="M4.267 25.067h2.667v-2.667h-2.667z"></path>
<path fill="#fff" d="M9.6 25.067h2.667v-2.667h-2.667z"></path>
<path fill="#fff" d="M14.933 25.067h2.667v-2.667h-2.667z"></path>
<path fill="#3dc5d3" d="M32 24.054c0 3.675-2.974 6.654-6.642 6.654s-6.642-2.979-6.642-6.654c0-3.675 2.974-6.654 6.642-6.654s6.642 2.979 6.642 6.654z"></path>
<path fill="#fff" d="M27.704 21.799l-3.613 3.672-1.328-1.35c-0.245-0.248-0.64-0.25-0.883-0.002s-0.242 0.649 0.002 0.898l1.771 1.8c0.245 0.248 0.64 0.25 0.883 0.002l4.053-4.12c0.243-0.247 0.242-0.649-0.002-0.898s-0.64-0.25-0.883-0.002z"></path>
<path fill="#3dc5d3" d="M6.933 7.591h-1.6v-5.788h1.6z"></path>
<path fill="#3dc5d3" d="M22.933 7.794h-1.6v-5.788h1.6z"></path>
</svg>
